<?xml version="1.0" encoding="UTF-8" standalone="no"?>
<svg
   xmlns:dc="http://purl.org/dc/elements/1.1/"
   xmlns:cc="http://creativecommons.org/ns#"
   xmlns:rdf="http://www.w3.org/1999/02/22-rdf-syntax-ns#"
   xmlns:svg="http://www.w3.org/2000/svg"
   xmlns="http://www.w3.org/2000/svg"
   width="52.916664mm"
   height="52.91666mm"
   viewBox="0 0 52.916664 52.91666"
   version="1.1"
   id="circlemasksvg">
  <path
     d="M 5e-7,5e-7 V 52.91666 H 52.916662 V 5e-7 Z m 26.4428315,5.29166 a 21.166665,21.166665 0 0 1 0.0155,0 A 21.166665,21.166665 0 0 1 47.625002,26.45833 21.166665,21.166665 0 0 1 26.458332,47.625 21.166665,21.166665 0 0 1 5.2916665,26.45833 21.166665,21.166665 0 0 1 26.442832,5.2916605 Z M 26.437832,15.875 A 10.583333,10.583333 0 0 0 15.874654,26.45833 10.583333,10.583333 0 0 0 26.457992,37.04166 10.583333,10.583333 0 0 0 37.041322,26.45833 10.583333,10.583333 0 0 0 26.457992,15.875 a 10.583333,10.583333 0 0 0 -0.0202,0 z"
     id="circlemaskpath" />
</svg>
